<svg fill="#FEFBFB" xmlns:dc="http://purl.org/dc/elements/1.1/" xmlns:cc="http://creativecommons.org/ns#" xmlns:rdf="http://www.w3.org/1999/02/22-rdf-syntax-ns#" xmlns:svg="http://www.w3.org/2000/svg" xmlns="http://www.w3.org/2000/svg" xmlns:sodipodi="http://sodipodi.sourceforge.net/DTD/sodipodi-0.dtd" xmlns:inkscape="http://www.inkscape.org/namespaces/inkscape" version="1.1" x="0px" y="0px" viewBox="0 0 100 100"><g transform="translate(0,-952.36218)"><path style="color:#000000;enable-background:accumulate;" d="m 34,964.36215 c -12.18801,0 -22,9.812 -22,22 l 0,32.00005 c 0,12.188 9.81199,22 22,22 l 32,0 c 12.18801,0 22,-9.812 22,-22 l 0,-32.00005 c 0,-12.188 -9.81199,-22 -22,-22 l -32,0 z m -8,20 48,0 c 1.10457,0 2,0.8954 2,2 0,1.1045 -0.89543,2 -2,2 l -48,0 c -1.10457,0 -2,-0.8955 -2,-2 0,-1.1046 0.89543,-2 2,-2 z m 0,16.00005 48,0 c 1.10457,0 2,0.8954 2,2 0,1.1044 -0.89543,1.9999 -2,1.9999 l -48,0 c -1.10457,0 -2,-0.8955 -2,-1.9999 0,-1.1046 0.89543,-2 2,-2 z m 0,16 48,0 c 1.10457,0 2,0.8954 2,2 0,1.1045 -0.89543,2 -2,2 l -48,0 c -1.10457,0 -2,-0.8955 -2,-2 0,-1.1046 0.89543,-2 2,-2 z" fill="#FEFBFB" stroke="none" marker="none" visibility="visible" display="inline" overflow="visible"></path></g></svg>